<svg width="16" height="16" viewBox="0 0 16 16" fill="none" xmlns="http://www.w3.org/2000/svg">
<g transform="translate(2, 2)">
<path d="M0.920891 -8.15392e-05H7.68632C7.78733 0.0440122 7.98583 0.0580552 8.10105 0.076305C8.68549 0.16887 9.25711 0.417755 9.73742 0.765138C10.2577 1.14661 10.6683 1.65861 10.9275 2.24947C11.3059 3.12649 11.3156 4.3127 10.9467 5.19365C10.6792 5.8322 10.1657 6.36466 9.59134 6.74079C9.45401 6.83116 9.28569 6.90698 9.15631 6.99804C9.20866 7.12498 9.33761 7.3163 9.4158 7.43949L9.77894 8.01473L11.1212 10.1502C11.2915 10.4222 11.5103 10.7227 11.6253 11.018C11.7483 11.3339 11.6055 11.7794 11.2804 11.9113C11.2155 11.9376 11.0729 11.9675 11.0266 11.9999H10.7935C10.6375 11.9343 10.4892 11.9339 10.3477 11.79C10.1975 11.6372 10.0883 11.4452 9.97489 11.2647L9.61414 10.6907L8.21968 8.4776C8.00882 8.14384 7.79994 7.80886 7.58953 7.47472C7.54455 7.39159 7.48363 7.37997 7.39267 7.38017C7.27363 7.38044 7.15131 7.38191 7.03092 7.38192L5.63067 7.38229C5.28305 7.38232 4.59781 7.42138 4.28521 7.31693C3.65977 7.10793 3.66692 6.12534 4.3362 5.94298C4.54618 5.88576 4.90673 5.91139 5.13422 5.91199L6.47918 5.9117C6.91553 5.9119 7.4142 5.92448 7.84224 5.84621C8.08436 5.80086 8.31881 5.72134 8.53856 5.61003C8.64861 5.55516 8.72754 5.49559 8.82517 5.42637C9.48135 4.96117 9.71294 4.30222 9.64875 3.51767C9.56882 2.54068 8.93028 1.86129 8.01152 1.58595C7.56469 1.45204 7.02675 1.48295 6.56547 1.48325L5.42152 1.48359L2.13121 1.48315L1.55482 1.48355C1.3528 1.48442 1.00537 1.50188 0.825044 1.44059C0.640437 1.37666 0.489003 1.24165 0.404382 1.06556C0.232681 0.712903 0.344018 0.305041 0.690441 0.100161C0.761135 0.0583522 0.845971 0.0359176 0.920891 -8.15392e-05Z" fill="black"/>
</g>
</svg>
