<svg width="12" height="12" viewBox="0 0 12 12" fill="none" xmlns="http://www.w3.org/2000/svg">
<path d="M8.25 0.75H3.75C3.45163 0.75 3.16548 0.868526 2.9545 1.0795C2.74353 1.29048 2.625 1.57663 2.625 1.875V10.125C2.625 10.4234 2.74353 10.7095 2.9545 10.9205C3.16548 11.1315 3.45163 11.25 3.75 11.25H8.25C8.54837 11.25 8.83452 11.1315 9.0455 10.9205C9.25647 10.7095 9.375 10.4234 9.375 10.125V1.875C9.375 1.57663 9.25647 1.29048 9.0455 1.0795C8.83452 0.868526 8.54837 0.75 8.25 0.75ZM3.375 3H8.625V9H3.375V3ZM3.75 1.5H8.25C8.34946 1.5 8.44484 1.53951 8.51517 1.60984C8.58549 1.68016 8.625 1.77554 8.625 1.875V2.25H3.375V1.875C3.375 1.77554 3.41451 1.68016 3.48484 1.60984C3.55516 1.53951 3.65054 1.5 3.75 1.5ZM8.25 10.5H3.75C3.65054 10.5 3.55516 10.4605 3.48484 10.3902C3.41451 10.3198 3.375 10.2245 3.375 10.125V9.75H8.625V10.125C8.625 10.2245 8.58549 10.3198 8.51517 10.3902C8.44484 10.4605 8.34946 10.5 8.25 10.5Z" fill="black"/>
</svg>
