<svg preserveAspectRatio="none" width="100%" height="100%" overflow="visible" style="display: block;" viewBox="0 0 12.2023 13.7665" fill="none" xmlns="http://www.w3.org/2000/svg">
<g id="Group 48096207">
<path id="Vector" d="M6.04997 0.000542922C6.34053 -0.0130308 6.67077 0.231151 6.91927 0.370296C7.26157 0.562086 7.59912 0.767704 7.94124 0.960509L10.538 2.44599C11.0103 2.71667 11.4894 2.98885 11.9591 3.26429C12.0206 3.30027 12.1288 3.39523 12.1497 3.45953C12.1769 3.54364 12.1954 3.70039 12.1965 3.78872C12.2014 4.14354 12.1994 4.50097 12.1994 4.8557V6.83533L12.199 8.90044C12.199 9.06978 12.2228 10.2694 12.1418 10.3399C11.8019 10.6355 11.2458 10.9154 10.8433 11.1459L8.91915 12.2477L7.33435 13.1564C7.05659 13.3158 6.43049 13.7173 6.14268 13.7656C5.86401 13.7858 5.30045 13.4057 5.04683 13.2598L3.65475 12.46L1.54243 11.2499C1.12148 11.0096 0.695739 10.7704 0.279232 10.5232C0.1774 10.4579 0.0583063 10.3815 0.0377534 10.2524C-0.0148357 9.92194 0.00324811 9.56333 0.00315669 9.22837L0.00288214 7.62459L0.00311986 5.02941C0.00322957 4.64711 0.00231601 4.26207 0.00385199 3.87988C0.00542455 3.48852 0.0146952 3.39117 0.372616 3.18617C2.16613 2.1589 3.95683 1.12646 5.75448 0.106324C5.85761 0.0477884 5.93441 0.0219637 6.04997 0.000542922Z" fill="var(--fill-0, white)"/>
<path id="Vector_2" d="M0.655376 3.76483C0.94777 3.75111 1.28891 3.7586 1.58619 3.75853H3.21166L8.14375 3.75901L10.4041 3.75735C10.7191 3.75705 11.1329 3.74319 11.445 3.77752C11.4993 3.78348 11.5473 3.84953 11.5754 3.89429C11.6052 4.00997 11.1809 4.6805 11.0989 4.81955L10.357 6.07686L8.13993 9.83652C7.80766 10.4448 7.36657 11.1508 7.00869 11.756L6.51891 12.5844C6.44479 12.7107 6.25876 13.0919 6.13432 13.1405L6.10362 13.1242C6.06892 13.0241 6.08218 12.2999 6.08218 12.1404L6.08309 8.61434C6.08364 8.11763 6.10707 7.51995 6.05366 7.02879C6.03877 6.88991 5.45162 6.59515 5.30229 6.5105L4.29221 5.93829L0.88604 4.01209C0.802564 3.96432 0.649055 3.88868 0.626383 3.80352L0.655376 3.76483Z" fill="var(--fill-0, black)"/>
</g>
</svg>
