<svg preserveAspectRatio="none" width="100%" height="100%" overflow="visible" style="display: block;" viewBox="0 0 32 32" fill="none" xmlns="http://www.w3.org/2000/svg">
<g id="Frame">
<path id="Vector" d="M27.6988 20.0375L21.7938 17.3913C21.5262 17.2766 21.2343 17.2305 20.9444 17.2571C20.6546 17.2838 20.3759 17.3823 20.1338 17.5438C20.1092 17.5595 20.0858 17.5771 20.0637 17.5963L16.9775 20.2212C16.9455 20.2387 16.9098 20.2485 16.8734 20.2498C16.8369 20.2511 16.8007 20.2439 16.7675 20.2287C14.7837 19.2712 12.7287 17.2287 11.7675 15.2725C11.7515 15.2398 11.7432 15.2039 11.7432 15.1675C11.7432 15.1311 11.7515 15.0952 11.7675 15.0625L14.4012 11.9375C14.4201 11.9144 14.4377 11.8902 14.4537 11.865C14.613 11.6219 14.7092 11.3429 14.7336 11.0533C14.7581 10.7637 14.71 10.4726 14.5937 10.2063L11.9663 4.31125C11.817 3.96326 11.559 3.67305 11.2308 3.48418C10.9027 3.29531 10.5221 3.21796 10.1462 3.26375C8.51278 3.4785 7.01339 4.28067 5.92828 5.52038C4.84316 6.76008 4.24658 8.35248 4.25 10C4.25 19.7875 12.2125 27.75 22 27.75C23.6474 27.7532 25.2397 27.1565 26.4794 26.0714C27.719 24.9863 28.5212 23.4871 28.7363 21.8537C28.7819 21.4797 28.7056 21.1008 28.5187 20.7736C28.3318 20.4463 28.0442 20.1882 27.6988 20.0375ZM22 26.25C13.04 26.25 5.75 18.96 5.75 10C5.74582 8.71741 6.20875 7.47718 7.05231 6.51101C7.89586 5.54485 9.06232 4.91886 10.3337 4.75H10.3625C10.4129 4.75094 10.4618 4.76708 10.5028 4.7963C10.5439 4.82552 10.5751 4.86646 10.5925 4.91375L13.23 10.8025C13.245 10.8352 13.2528 10.8708 13.2528 10.9069C13.2528 10.9429 13.245 10.9785 13.23 11.0112L10.5913 14.1438C10.5716 14.1661 10.5536 14.1899 10.5375 14.215C10.3724 14.4671 10.2751 14.7575 10.2552 15.0582C10.2353 15.3589 10.2933 15.6596 10.4237 15.9312C11.5325 18.2012 13.82 20.4712 16.115 21.58C16.3882 21.7097 16.6904 21.7663 16.9921 21.7444C17.2938 21.7225 17.5846 21.6228 17.8362 21.455C17.86 21.4387 17.8837 21.4212 17.9062 21.4025L20.9912 18.7775C21.0217 18.7611 21.0554 18.7515 21.0899 18.7494C21.1244 18.7472 21.159 18.7525 21.1913 18.765L27.0975 21.4112C27.1457 21.4318 27.1863 21.467 27.2134 21.5119C27.2406 21.5567 27.2529 21.609 27.2488 21.6612C27.0808 22.9333 26.4554 24.1006 25.4894 24.9451C24.5235 25.7896 23.2831 26.2534 22 26.25Z" fill="var(--fill-0, black)"/>
</g>
</svg>
