<svg width="17" height="16" viewBox="0 0 17 16" fill="none" xmlns="http://www.w3.org/2000/svg">
<g clip-path="url(#clip0_517_8122)">
<path d="M0.230469 0.189831C0.643141 0.175996 1.08739 0.183385 1.50191 0.183255L3.62144 0.182567L4.74162 0.18226C4.96415 0.181996 5.20217 0.174177 5.42303 0.197789C5.4965 0.205642 5.51864 0.221189 5.56918 0.278796C5.71393 0.443761 5.85093 0.631378 5.98457 0.805964L6.71872 1.76243L9.1679 4.95598C9.29359 4.83623 9.46643 4.62545 9.5867 4.4894L10.4499 3.50748L11.8984 1.88209C12.3974 1.31271 12.9017 0.747836 13.4112 0.187521C13.6014 0.174714 13.8688 0.182238 14.0627 0.182358L15.2064 0.183406C15.4294 0.183636 15.7024 0.178794 15.928 0.187946C15.95 0.188842 15.9502 0.198283 15.9624 0.216731C15.9343 0.294619 14.7913 1.5501 14.6499 1.71006L11.7652 4.95902L10.9518 5.87954C10.7949 6.05787 10.5313 6.36692 10.3592 6.51435C10.8592 7.14052 11.3314 7.7782 11.8189 8.41159L15.3206 12.9667L16.4486 14.4387C16.5649 14.5917 16.8717 15.0241 16.9918 15.1381C16.7028 15.1582 16.38 15.1532 16.0878 15.1537L13.3005 15.1539C12.9048 15.1539 12.1984 15.1739 11.825 15.1404C11.6123 14.9551 11.1848 14.3541 10.9825 14.0927C10.4533 13.4231 9.92945 12.7493 9.41102 12.0715L8.46661 10.8596C8.27159 10.6139 7.88779 10.1398 7.73657 9.88934C7.71124 9.93937 7.67949 9.99468 7.64264 10.037C7.13854 10.6156 6.62464 11.1902 6.11134 11.7604L4.5236 13.5526L3.6104 14.5781C3.49248 14.7113 3.22876 15.0276 3.11111 15.122C2.89088 15.1719 2.49299 15.1497 2.25887 15.1541C1.69219 15.1648 1.08561 15.1335 0.523719 15.1589C0.577086 15.0843 0.631811 15.0182 0.690598 14.9481C1.19079 14.3517 1.72064 13.7813 2.23794 13.1999L5.27168 9.77707L6.1275 8.81224C6.26052 8.6639 6.40611 8.5192 6.53258 8.36788C6.13107 7.81577 5.60906 7.18696 5.18766 6.6402L2.10819 2.66723C1.70054 2.15087 1.29646 1.63176 0.895973 1.10998C0.806111 0.993468 0.232264 0.279199 0.230469 0.189831ZM13.9201 13.6042C13.6808 13.3299 13.418 12.9606 13.1909 12.6647L11.8996 10.9882L7.69749 5.50974L5.61023 2.79151L5.05626 2.07209C4.9675 1.95704 4.79923 1.75309 4.73673 1.63477C4.51648 1.67429 3.48068 1.66452 3.23552 1.64698C3.29411 1.75927 3.42654 1.91637 3.50813 2.02046L3.94978 2.58312L5.38833 4.43598L10.5806 11.1231C10.774 11.3684 12.4453 13.5739 12.5317 13.5994C12.6589 13.637 13.7416 13.6211 13.9201 13.6042Z" fill="black"/>
</g>
<defs>
<clipPath id="clip0_517_8122">
<rect width="17" height="16" fill="white"/>
</clipPath>
</defs>
</svg>
