<svg width="20" height="13" viewBox="0 0 20 13" fill="none" xmlns="http://www.w3.org/2000/svg">
<g clip-path="url(#clip0_524_8726)">
<path d="M8.75557 0.0568681L8.88025 0.054781C9.96311 0.0443755 11.046 0.0488304 12.1288 0.0681447C12.8825 0.0826161 13.7001 0.085207 14.448 0.127131C15.4935 0.185745 16.6151 0.221819 17.6338 0.454624C18.2274 0.590324 18.8976 1.17888 19.1333 1.73486C19.3175 2.17434 19.3819 2.67253 19.4436 3.1404C19.5246 3.73278 19.5793 4.32844 19.6077 4.92566C19.6988 6.53839 19.6583 8.16146 19.4505 9.76511C19.3499 10.5405 19.2777 11.2261 18.7135 11.8279C18.0693 12.5149 17.3127 12.5971 16.4327 12.6953C16.2854 12.7117 16.1291 12.706 15.9798 12.7181C15.2609 12.7799 14.5407 12.8245 13.8196 12.8518C13.4966 12.8631 13.1843 12.8556 12.863 12.8605L11.2937 12.8909L11.2229 12.8928C9.9251 12.9112 8.62704 12.9014 7.32964 12.8636C7.00929 12.8556 6.68943 12.8657 6.36979 12.8567C5.63734 12.8322 4.90564 12.7892 4.17535 12.7279C3.62648 12.682 3.0193 12.6665 2.47685 12.5198C2.06594 12.4103 1.68998 12.1973 1.38491 11.901C0.998318 11.5289 0.796116 11.0837 0.707985 10.5676C0.66504 10.316 0.595985 10.0809 0.573491 9.82191C0.558401 9.6482 0.543928 9.47246 0.526964 9.30007C0.439154 8.42565 0.386817 7.54804 0.370083 6.66938C0.365108 6.36867 0.381021 6.10269 0.390083 5.80441C0.405226 5.07408 0.452386 4.34476 0.531429 3.61856C0.547279 3.46636 0.55152 3.31334 0.569408 3.16117C0.601588 2.88746 0.655504 2.62 0.714303 2.35102C0.74391 2.21559 0.769678 2.07636 0.814889 1.94518C0.922379 1.63328 1.10522 1.32989 1.33502 1.09332C1.59987 0.820659 1.92767 0.603597 2.28996 0.485139C2.86339 0.297638 3.48371 0.278506 4.0792 0.229894C5.63583 0.102822 7.1945 0.0781762 8.75557 0.0568681Z" fill="#FF0000"/>
<path d="M8.08546 3.72937L11.4308 5.57066C11.9635 5.86604 12.5391 6.1681 13.061 6.47438C12.5152 6.80052 11.8573 7.14941 11.2929 7.45459L9.14633 8.63862C8.80766 8.82458 8.41138 9.0291 8.08398 9.22498C8.09255 9.03417 8.08599 8.78661 8.08603 8.59178L8.08614 7.39705L8.08546 3.72937Z" fill="#FEFEFE"/>
</g>
<defs>
<clipPath id="clip0_524_8726">
<rect width="19.957" height="13" fill="white"/>
</clipPath>
</defs>
</svg>
